<svg width="120" height="120" viewBox="0 0 120 120" fill="none" xmlns="http://www.w3.org/2000/svg">
<path d="M108.249 50.1499C106.299 47.3499 102.849 45.7499 98.8994 45.7499H78.3994C77.0494 45.7499 75.7994 45.1999 74.9494 44.1999C74.0494 43.1999 73.6994 41.7999 73.8994 40.3499L76.4494 23.9499C77.5494 19.0499 74.2994 13.5499 69.3994 11.8999C64.8494 10.1999 59.4994 12.4999 57.3494 15.7499L36.2494 47.0999L35.6494 48.0999V92.2999L36.3994 93.0499L52.2494 105.3C54.3494 107.4 59.0994 108.55 62.4494 108.55H81.9494C88.6494 108.55 95.3994 103.5 96.8994 97.3499L109.199 59.8999C110.499 56.3499 110.149 52.8999 108.249 50.1499Z" fill="url(#paint0_linear_757_2526)"/>
<path d="M26.05 31.9H20.9C13.15 31.9 10 34.9 10 42.3V92.6C10 100 13.15 103 20.9 103H26.05C33.8 103 36.95 100 36.95 92.6V42.3C36.95 34.9 33.8 31.9 26.05 31.9Z" fill="url(#paint1_linear_757_2526)"/>
<defs>
<linearGradient id="paint0_linear_757_2526" x1="72.8116" y1="11.3245" x2="72.8116" y2="108.55" gradientUnits="userSpaceOnUse">
<stop stop-color="#FF33F7"/>
<stop offset="0.503125" stop-color="#B66DFF"/>
<stop offset="1" stop-color="#7B6EF6"/>
</linearGradient>
<linearGradient id="paint1_linear_757_2526" x1="-21.5" y1="123" x2="23.475" y2="103" gradientUnits="userSpaceOnUse">
<stop stop-color="#FF33F7"/>
<stop offset="0.503125" stop-color="#B66DFF"/>
<stop offset="1" stop-color="#7B6EF6"/>
</linearGradient>
</defs>
</svg>
